<svg xmlns="http://www.w3.org/2000/svg" xmlns:xlink="http://www.w3.org/1999/xlink" viewBox="0 0 15.47 15.47" class="injected-svg svg"><defs><style>.cls-1{fill:none;}.cls-2{clip-path:url(#clip-path);}.cls-3{fill:#000;}</style><clipPath id="clip-path-2" transform="translate(0 0)"><rect class="cls-1" width="15.47" height="15.47"></rect></clipPath></defs><title>icon-da-dang</title><g id="Layer_2" data-name="Layer 2"><g id="Layer_1-2" data-name="Layer 1"><g class="cls-2"><path class="cls-3" d="M7.77,15.47h0L5.2,15A.27.27,0,0,1,5,14.8L4.9,13a5.59,5.59,0,0,1-.66-.41l-1.67.7a.24.24,0,0,1-.3-.08L.78,11.11a.24.24,0,0,1,0-.31L2,9.47a5.47,5.47,0,0,1-.19-.8L.16,8A.24.24,0,0,1,0,7.73L.43,5.2A.27.27,0,0,1,.66,5L2.38,4.9a6,6,0,0,1,.47-.76L2.18,2.57a.25.25,0,0,1,.09-.3L4.36.78a.24.24,0,0,1,.31,0L5.91,1.92a5.86,5.86,0,0,1,.92-.22L7.46.16A.25.25,0,0,1,7.73,0l2.53.43a.24.24,0,0,1,.21.23l.09,1.67a8.24,8.24,0,0,1,.8.5l1.54-.65a.25.25,0,0,1,.3.09l1.49,2.09a.26.26,0,0,1,0,.31L13.52,5.94a5.19,5.19,0,0,1,.19.87l1.6.65a.24.24,0,0,1,.15.27L15,10.26a.26.26,0,0,1-.24.21L13,10.56a5.52,5.52,0,0,1-.44.7l.69,1.64a.25.25,0,0,1-.08.3l-2.09,1.49a.25.25,0,0,1-.31,0L9.45,13.45a5.19,5.19,0,0,1-.76.17L8,15.31a.25.25,0,0,1-.23.16m-2.29-.89,2.14.36.66-1.64a.24.24,0,0,1,.2-.15,5.23,5.23,0,0,0,.95-.22.26.26,0,0,1,.24.06L11,14.16l1.77-1.25-.68-1.59a.25.25,0,0,1,0-.25,6,6,0,0,0,.55-.86.26.26,0,0,1,.21-.14L14.58,10l.36-2.13-1.55-.63a.24.24,0,0,1-.15-.2A4.79,4.79,0,0,0,13,6a.28.28,0,0,1,.06-.25l1.1-1.23L12.91,2.72l-1.49.63a.27.27,0,0,1-.26,0,5,5,0,0,0-.95-.61.23.23,0,0,1-.14-.21L10,.89,7.85.53,7.24,2a.24.24,0,0,1-.2.16,5,5,0,0,0-1.1.26.25.25,0,0,1-.25,0L4.48,1.3,2.72,2.56l.64,1.52a.23.23,0,0,1,0,.25,4.89,4.89,0,0,0-.56.93.28.28,0,0,1-.22.14L.89,5.48.53,7.62l1.59.64a.24.24,0,0,1,.15.2,5.5,5.5,0,0,0,.24,1,.25.25,0,0,1,0,.25L1.3,11l1.26,1.76,1.62-.68a.26.26,0,0,1,.24,0,6.71,6.71,0,0,0,.83.52.24.24,0,0,1,.14.21Zm9.31-4.36Z" transform="translate(0 0)"></path><path class="cls-3" d="M7.75,11a3.41,3.41,0,0,1-.55-.05A3.29,3.29,0,0,1,4.5,7.12a3.31,3.31,0,0,1,3.79-2.7A3.29,3.29,0,0,1,11,8.21a3.23,3.23,0,0,1-1.34,2.13,3.2,3.2,0,0,1-1.9.62m0-6.08a2.73,2.73,0,0,0-1.61.51A2.79,2.79,0,1,0,9.36,9.94a2.75,2.75,0,0,0,1.13-1.81A2.78,2.78,0,0,0,8.21,4.92a2.56,2.56,0,0,0-.47,0" fill="#000" transform="translate(0 0)"></path></g></g></g></svg>