<svg xmlns="http://www.w3.org/2000/svg" xmlns:xlink="http://www.w3.org/1999/xlink" viewBox="0 0 369.55 328.39" class="injected-svg svg"><defs><style>.cls-1{fill:none;}.cls-2{clip-path:url(#clip-path);}</style><clipPath id="clip-path-14" transform="translate(0 0)"><rect class="cls-1" width="369.55" height="328.39"></rect></clipPath></defs><title>icon-like</title><g id="Layer_2" data-name="Layer 2"><g id="Layer_1-2" data-name="Layer 1"><g class="cls-2"><path d="M23.6,139.37H97.91A23.66,23.66,0,0,1,121.51,163V303.43A23.64,23.64,0,0,1,97.91,327H23.6A23.64,23.64,0,0,1,0,303.43V163a23.66,23.66,0,0,1,23.6-23.59m74.31,11.52H23.6A12.12,12.12,0,0,0,11.52,163V303.43A12.12,12.12,0,0,0,23.6,315.5H97.91A12.12,12.12,0,0,0,110,303.43V163a12.12,12.12,0,0,0-12.08-12.07" transform="translate(0 0)"></path><path d="M112.2,151.73a5.74,5.74,0,1,0,5,10.35c.23-.11,79.07-36.67,67.52-149.55,16-2.91,67.07-4.06,44.92,108.19h0a5.76,5.76,0,0,0,6.87,6.74c9.49-1.22,158-19.23,110.46,53.67h0a5.77,5.77,0,0,0,.57,7c2.17,2.82,18.65,25.71-7.57,38.46h0a5.76,5.76,0,0,0-2.87,7.21c.78,2.34,9.4,29.67-10.84,38.34h0a5.75,5.75,0,0,0-3.46,5.82c0,4.75-1.29,42.9-33.56,38.51h0a6.62,6.62,0,0,0-.88-.06H148.16l-29.78-16.37a5.75,5.75,0,0,0-5.54,10.08l30.78,16.92a5.69,5.69,0,0,0,3.08.89H288.16c39.77,5,45.18-34.41,45.89-46.85,20.76-11.41,17.57-36.05,15.13-46.42,28-16.44,15.33-41.57,9.44-50.62,49.3-80.78-82.25-72.26-116.31-68.81C266.66-22.49,182.84.77,177,2.55a5.75,5.75,0,0,0-4.33,6.3h0c13.46,108.64-60.26,142.79-60.47,142.89" transform="translate(0 0)"></path></g></g></g></svg>