<svg xmlns="http://www.w3.org/2000/svg" xmlns:xlink="http://www.w3.org/1999/xlink" fill="#000" viewBox="0 0 11.51 17.57" class="injected-svg svg"><defs><style>.cls-1{fill:none;}.cls-2{clip-path:url(#clip-path);}.cls-3{fill:#000;}</style><clipPath id="clip-path-1" transform="translate(0 0)"><rect class="cls-1" width="11.51" height="17.57"></rect></clipPath></defs><title>icon-day-du</title><g id="Layer_2" data-name="Layer 2"><g id="Layer_1-2" data-name="Layer 1"><g class="cls-2"><path class="cls-3" d="M6.88,1.59a.25.25,0,0,1-.25-.25A.84.84,0,1,0,5,1.34a.26.26,0,0,1-.25.25.25.25,0,0,1-.25-.25,1.34,1.34,0,1,1,2.67,0,.25.25,0,0,1-.25.25" transform="translate(0 0)"></path><path class="cls-3" d="M8.66,4.36H2.92a.26.26,0,0,1-.25-.25v-2a.25.25,0,0,1,.25-.25H8.66a.25.25,0,0,1,.25.25v2a.25.25,0,0,1-.25.25m-5.49-.5H8.41V2.39H3.17Z" transform="translate(0 0)"></path><path class="cls-3" d="M11.26,17.57H.25A.25.25,0,0,1,0,17.32V2.77a.25.25,0,0,1,.25-.25H1.71A.25.25,0,0,1,2,2.77.25.25,0,0,1,1.71,3H.5V17.07H11V3H9.68a.25.25,0,0,1-.25-.25.25.25,0,0,1,.25-.25h1.58a.25.25,0,0,1,.25.25V17.32a.25.25,0,0,1-.25.25" transform="translate(0 0)"></path><path class="cls-3" d="M4.92,12.5a.25.25,0,0,1-.18-.08L3.21,10.89a.25.25,0,0,1,0-.36.26.26,0,0,1,.35,0l1.36,1.36L8.49,8.33a.25.25,0,0,1,.35.35L5.1,12.42a.25.25,0,0,1-.18.08" transform="translate(0 0)"></path></g></g></g></svg>