<svg xmlns="http://www.w3.org/2000/svg" xmlns:xlink="http://www.w3.org/1999/xlink" id="Layer_1" data-name="Layer 1" viewBox="0 0 13.21 16.39" fill="#000" class="injected-svg svg"><defs><style>.cls-1{fill:none;}.cls-2{clip-path:url(#clip-path);}.cls-3{fill:##000;}</style><clipPath id="clip-path-0" transform="translate(0 0)"><rect class="cls-1" width="13.21" height="16.39"></rect></clipPath></defs><title>icon-tieu-chuan</title><g class="cls-2"><path class="cls-3" d="M6.6,10.66a5.33,5.33,0,1,1,5.34-5.33A5.33,5.33,0,0,1,6.6,10.66M6.6.5a4.83,4.83,0,1,0,4.84,4.83A4.84,4.84,0,0,0,6.6.5" transform="translate(0 0)"></path><path class="cls-3" d="M8.48,16.39h0a.25.25,0,0,1-.21-.17l-1.64-5L5,16.21a.25.25,0,0,1-.21.17.24.24,0,0,1-.24-.11L3,14l-2.68.67a.27.27,0,0,1-.25-.08.23.23,0,0,1,0-.25l2.31-6a.25.25,0,0,1,.32-.15.26.26,0,0,1,.15.33L.66,14.05,3,13.45a.24.24,0,0,1,.27.1l1.34,2,1.72-5.23a.24.24,0,0,1,.23-.18.25.25,0,0,1,.24.18l1.72,5.23,1.34-2a.24.24,0,0,1,.27-.1l2.38.6L10.41,8.51a.25.25,0,0,1,.14-.33.26.26,0,0,1,.33.15l2.31,6a.25.25,0,0,1,0,.25.27.27,0,0,1-.25.08L10.22,14,8.69,16.27a.27.27,0,0,1-.21.12" transform="translate(0 0)"></path><path class="cls-3" d="M7.69,3.33H5.52a.25.25,0,0,1-.25-.25.25.25,0,0,1,.25-.25H7.69a.25.25,0,0,1,.25.25.25.25,0,0,1-.25.25" transform="translate(0 0)"></path><path class="cls-3" d="M7.69,8.06H5.52a.25.25,0,0,1,0-.5H7.69a.25.25,0,0,1,0,.5" transform="translate(0 0)"></path><path class="cls-3" d="M6.6,8.06a.25.25,0,0,1-.25-.25V3.08a.26.26,0,0,1,.25-.25.25.25,0,0,1,.25.25V7.81a.25.25,0,0,1-.25.25" transform="translate(0 0)" fill="#000"></path></g></svg>